<?xml version="1.0" encoding="UTF-8"?><svg id="_레이어_2" xmlns="http://www.w3.org/2000/svg" viewBox="0 0 192.98 212.97"><defs><style>.cls-1{fill:#fff;}.cls-2{fill:#bd5454;}.cls-3{fill:#ddc844;}</style></defs><g id="_레이어_1-2"><rect x="91.59" y="96.72" width="68.9" height="10.77" rx="5.39" ry="5.39" transform="translate(-34.17 76.7) rotate(-30)"/><path class="cls-3" d="m109.05,0h-25.12c-4.53,0-8.24,3.71-8.24,8.24h0c0,4.53,3.71,8.24,8.24,8.24h4.32v16.88c0,4.53,3.71,8.24,8.24,8.24s8.24-3.71,8.24-8.24v-16.88h4.32c4.53,0,8.24-3.71,8.24-8.24h0c0-4.53-3.71-8.24-8.24-8.24Z"/><path class="cls-2" d="m186.09,34.92c-11.7-11.7-41.07-5.04-54.28-1.24-10.89-4.47-22.81-6.94-35.32-6.94s-23.93,2.37-34.64,6.66c-13.54-3.47-43.57-9.44-55.26,2.25-13.48,13.48-2.58,50.42.21,59.07-2.24,8-3.44,16.43-3.44,25.14,0,51.43,41.69,93.12,93.12,93.12s93.12-41.69,93.12-93.12c0-8.11-1.04-15.98-2.99-23.49,1.69-5.54,13.75-47.17-.53-61.45Z"/><circle class="cls-1" cx="96.49" cy="119.86" r="79.17"/><circle cx="96.49" cy="119.86" r="6.74"/><rect x="91.59" y="97.72" width="68.9" height="10.77" rx="5.39" ry="5.39" transform="translate(-34.67 76.83) rotate(-30)"/><rect x="38.11" y="91.09" width="68.9" height="10.77" rx="5.39" ry="5.39" transform="translate(55.64 216.01) rotate(-135)"/></g></svg>